<?xml version="1.0" standalone="no"?>
<!DOCTYPE svg PUBLIC "-//W3C//DTD SVG 20010904//EN"
 "http://www.w3.org/TR/2001/REC-SVG-20010904/DTD/svg10.dtd">
<svg version="1.0" xmlns="http://www.w3.org/2000/svg"
 width="300.000000pt" height="300.000000pt" viewBox="0 0 300.000000 300.000000"
 preserveAspectRatio="xMidYMid meet">
<metadata>
Created by potrace 1.11, written by Peter Selinger 2001-2013
</metadata>
<g transform="translate(0.000000,300.000000) scale(0.100000,-0.100000)"
fill="#000000" stroke="none">
<path d="M2330 2417 c-25 -13 -57 -31 -72 -41 -27 -18 -30 -17 -125 8 -138 36
-273 48 -358 32 -11 -2 -40 -7 -65 -11 -120 -18 -290 -91 -450 -191 -52 -33
-103 -63 -113 -67 -21 -8 -76 -14 -185 -22 -420 -29 -552 -63 -695 -178 -152
-124 -194 -200 -216 -386 -11 -96 -4 -225 19 -321 0 -3 8 9 17 25 l16 30 22
-65 c37 -115 84 -188 186 -294 65 -68 67 -72 99 -185 19 -64 46 -138 62 -164
15 -26 28 -52 28 -56 0 -5 45 -9 100 -9 56 0 100 5 100 10 0 5 -12 25 -26 43
-40 53 -64 127 -64 200 0 60 2 65 28 79 23 12 76 29 132 43 8 2 51 5 95 7 94
5 199 -19 341 -78 l92 -37 53 32 c69 43 239 102 255 88 6 -5 15 -28 18 -52 4
-23 20 -65 36 -93 31 -56 46 -104 54 -177 3 -27 8 -52 11 -56 6 -10 173 -13
178 -3 3 4 -3 45 -12 92 -22 109 -19 154 13 236 9 22 29 47 44 56 35 22 152
136 189 185 15 21 36 47 47 58 18 20 18 19 11 -32 -4 -29 -3 -53 2 -53 29 0
164 235 192 334 8 32 7 40 -16 67 -14 16 -23 32 -20 35 5 5 127 -57 154 -78 6
-5 29 -9 50 -10 69 -1 222 93 209 128 -16 42 -33 122 -42 199 -3 28 -7 60 -9
73 -5 32 4 27 16 -8 14 -40 27 -38 46 7 22 54 27 81 25 150 l-1 62 52 37 c60
44 87 75 104 121 26 73 -21 168 -112 224 -45 28 -47 24 -14 -33 35 -58 60
-141 49 -158 -5 -8 -9 -7 -13 4 -6 14 -12 13 -48 -10 -69 -43 -94 -47 -148
-20 -59 30 -92 38 -169 41 -44 2 -78 11 -112 28 -26 14 -51 22 -56 18 -22 -15
-41 -79 -38 -126 3 -41 1 -46 -8 -30 -18 31 -18 121 0 167 9 22 38 65 65 94
53 59 47 67 -23 31z"/>
<path d="M2100 982 c0 -5 -25 -26 -55 -48 -112 -79 -113 -80 -121 -142 -12
-92 -11 -103 11 -187 l21 -80 82 -1 c45 -1 82 1 82 3 0 3 -15 31 -32 62 -55
95 -47 202 27 384 4 10 3 17 -4 17 -6 0 -11 -4 -11 -8z"/>
<path d="M220 949 c0 -10 59 -290 75 -356 l18 -72 67 0 68 0 -19 52 c-11 29
-21 61 -24 72 -2 11 -16 62 -31 113 -24 81 -32 97 -63 120 -20 14 -48 37 -63
51 -16 14 -28 23 -28 20z"/>
</g>
</svg>
